<svg width="24" height="24" viewBox="0 0 24 24" fill="none" xmlns="http://www.w3.org/2000/svg">
<path d="M3 5.75C3 4.23122 4.23122 3 5.75 3H18.25C19.7688 3 21 4.23122 21 5.75V18.25C21 19.7688 19.7688 21 18.25 21H5.75C4.23122 21 3 19.7688 3 18.25V5.75ZM5.75 4.5C5.05964 4.5 4.5 5.05964 4.5 5.75V18.25C4.5 18.9404 5.05964 19.5 5.75 19.5H18.25C18.9404 19.5 19.5 18.9404 19.5 18.25V5.75C19.5 5.05964 18.9404 4.5 18.25 4.5H5.75Z" fill="#616161"/>
<path d="M11.1782 12.1699V11.3218H11.9517C12.6021 11.3218 13.0503 10.9175 13.0503 10.3418C13.0503 9.81885 12.6504 9.40576 11.978 9.40576C11.2881 9.40576 10.8574 9.75732 10.8091 10.3901H9.74561C9.80273 9.27832 10.6641 8.50049 12.0396 8.50049C13.3887 8.50049 14.1489 9.28711 14.1445 10.1968C14.1401 10.9614 13.6611 11.4668 12.9888 11.647V11.7217C13.8501 11.8535 14.3906 12.4116 14.3906 13.2773C14.3906 14.3672 13.3711 15.1582 12 15.1582C10.6201 15.1582 9.67529 14.4067 9.62256 13.2598H10.708C10.7563 13.8486 11.2529 14.2266 11.9868 14.2266C12.7163 14.2266 13.2305 13.8135 13.2305 13.1982C13.2305 12.561 12.7559 12.1699 11.9736 12.1699H11.1782Z" fill="#616161"/>
</svg>
