<svg width="24" height="24" viewBox="0 0 24 24" fill="none" xmlns="http://www.w3.org/2000/svg">
<mask id="path-1-inside-1_1418_71565" fill="white">
<path d="M10.3156 11.7455C10.2438 11.6735 10.1523 11.6242 10.0526 11.6039C9.95293 11.5836 9.84946 11.5932 9.75517 11.6314C9.66087 11.6696 9.57994 11.7348 9.52249 11.8187C9.46505 11.9027 9.43364 12.0017 9.4322 12.1035V20.4827C9.4322 20.6199 9.4867 20.7515 9.5837 20.8485C9.6807 20.9455 9.81226 21 9.94944 21H13.0529C13.1901 21 13.3216 20.9455 13.4186 20.8485C13.5156 20.7515 13.5701 20.6199 13.5701 20.4827V15.2069C13.5702 15.1389 13.557 15.0716 13.531 15.0087C13.5051 14.9459 13.4671 14.8888 13.4191 14.8407L10.3156 11.7455ZM6.47981 13.8145L3.37638 16.9179C3.28144 17.013 3.22727 17.1414 3.22534 17.2758V20.4827C3.22534 20.6199 3.27984 20.7515 3.37684 20.8485C3.47384 20.9455 3.6054 21 3.74258 21H6.84601C6.98319 21 7.11475 20.9455 7.21175 20.8485C7.30875 20.7515 7.36325 20.6199 7.36325 20.4827V14.1724C7.36181 14.0707 7.33041 13.9716 7.27296 13.8877C7.21552 13.8037 7.13458 13.7385 7.04029 13.7003C6.94599 13.6621 6.84252 13.6526 6.74283 13.6729C6.64314 13.6932 6.55165 13.7424 6.47981 13.8145ZM18.8935 9.6766L15.7901 12.78C15.6952 12.8752 15.641 13.0035 15.6391 13.1379V20.4827C15.6391 20.6199 15.6936 20.7515 15.7906 20.8485C15.8876 20.9455 16.0191 21 16.1563 21H19.2597C19.3969 21 19.5285 20.9455 19.6255 20.8485C19.7225 20.7515 19.777 20.6199 19.777 20.4827V10.0345C19.7755 9.9328 19.7441 9.83375 19.6867 9.74978C19.6292 9.66581 19.5483 9.60064 19.454 9.56244C19.3597 9.52424 19.2562 9.51469 19.1566 9.535C19.0569 9.5553 18.9654 9.60456 18.8935 9.6766Z"/>
</mask>
<path d="M10.3156 11.7455L9.38869 12.6699L9.39122 12.6724L10.3156 11.7455ZM9.4322 12.1035L8.12325 12.085L8.12312 12.0942V12.1035H9.4322ZM9.4322 20.4827H8.12312H9.4322ZM13.5701 15.2069L12.261 15.2045V15.2069H13.5701ZM13.4191 14.8407L14.3459 13.9162L14.3435 13.9138L13.4191 14.8407ZM6.47981 13.8145L7.40547 14.7401L7.40677 14.7388L6.47981 13.8145ZM3.37638 16.9179L2.45072 15.9922L2.44968 15.9933L3.37638 16.9179ZM3.22534 17.2758L1.91639 17.2571L1.91626 17.2665V17.2758H3.22534ZM3.22534 20.4827H1.91626H3.22534ZM7.36325 14.1724H8.67233V14.1632L8.6722 14.1539L7.36325 14.1724ZM18.8935 9.6766L19.8192 10.6023L19.8205 10.601L18.8935 9.6766ZM15.7901 12.78L14.8644 11.8543L14.8634 11.8554L15.7901 12.78ZM15.6391 13.1379L14.3301 13.1192L14.33 13.1286V13.1379H15.6391ZM19.777 10.0345H21.0861V10.0253L21.0859 10.0161L19.777 10.0345ZM11.2426 10.8212C10.9889 10.5668 10.6659 10.3929 10.3139 10.3212L9.79135 12.8867C9.63873 12.8556 9.49867 12.7802 9.38869 12.6699L11.2426 10.8212ZM10.3139 10.3212C9.96187 10.2495 9.59654 10.2832 9.2636 10.4181L10.2467 12.8447C10.1024 12.9032 9.94398 12.9178 9.79135 12.8867L10.3139 10.3212ZM9.2636 10.4181C8.93065 10.553 8.64488 10.7831 8.44205 11.0796L10.6029 12.5579C10.515 12.6864 10.3911 12.7862 10.2467 12.8447L9.2636 10.4181ZM8.44205 11.0796C8.23921 11.3761 8.12832 11.7258 8.12325 12.085L10.7412 12.1219C10.739 12.2777 10.6909 12.4293 10.6029 12.5579L8.44205 11.0796ZM8.12312 12.1035V20.4827H10.7413V12.1035H8.12312ZM8.12312 20.4827C8.12312 20.9671 8.31553 21.4316 8.65804 21.7741L10.5094 19.9228C10.6579 20.0713 10.7413 20.2727 10.7413 20.4827H8.12312ZM8.65804 21.7741C9.00054 22.1166 9.46508 22.309 9.94944 22.309V19.6909C10.1595 19.6909 10.3609 19.7743 10.5094 19.9228L8.65804 21.7741ZM9.94944 22.309H13.0529V19.6909H9.94944V22.309ZM13.0529 22.309C13.5372 22.309 14.0018 22.1166 14.3443 21.7741L12.493 19.9228C12.6415 19.7743 12.8429 19.6909 13.0529 19.6909V22.309ZM14.3443 21.7741C14.6868 21.4316 14.8792 20.9671 14.8792 20.4827H12.261C12.261 20.2727 12.3445 20.0713 12.493 19.9228L14.3443 21.7741ZM14.8792 20.4827V15.2069H12.261V20.4827H14.8792ZM14.8792 15.2092C14.8796 14.9692 14.8327 14.7315 14.7412 14.5096L12.3208 15.5079C12.2812 15.4117 12.2608 15.3086 12.261 15.2045L14.8792 15.2092ZM14.7412 14.5096C14.6497 14.2878 14.5154 14.0861 14.3459 13.9162L12.4923 15.7652C12.4188 15.6915 12.3605 15.6041 12.3208 15.5079L14.7412 14.5096ZM14.3435 13.9138L11.2401 10.8186L9.39122 12.6724L12.4947 15.7676L14.3435 13.9138ZM5.55415 12.8888L2.45072 15.9922L4.30203 17.8436L7.40547 14.7401L5.55415 12.8888ZM2.44968 15.9933C2.11445 16.3292 1.92319 16.7825 1.91639 17.2571L4.53429 17.2946C4.53135 17.5003 4.44842 17.6969 4.30307 17.8425L2.44968 15.9933ZM1.91626 17.2758V20.4827H4.53443V17.2758H1.91626ZM1.91626 20.4827C1.91626 20.9671 2.10868 21.4316 2.45118 21.7741L4.3025 19.9228C4.451 20.0713 4.53443 20.2727 4.53443 20.4827H1.91626ZM2.45118 21.7741C2.79368 22.1166 3.25821 22.309 3.74258 22.309V19.6909C3.95259 19.6909 4.154 19.7743 4.3025 19.9228L2.45118 21.7741ZM3.74258 22.309H6.84601V19.6909H3.74258V22.309ZM6.84601 22.309C7.33038 22.309 7.79491 22.1166 8.13741 21.7741L6.28609 19.9228C6.43459 19.7743 6.636 19.6909 6.84601 19.6909V22.309ZM8.13741 21.7741C8.47992 21.4316 8.67233 20.9671 8.67233 20.4827H6.05417C6.05417 20.2727 6.13759 20.0713 6.28609 19.9228L8.13741 21.7741ZM8.67233 20.4827V14.1724H6.05417V20.4827H8.67233ZM8.6722 14.1539C8.66713 13.7947 8.55624 13.445 8.35341 13.1485L6.19252 14.6268C6.10457 14.4983 6.05649 14.3466 6.0543 14.1909L8.6722 14.1539ZM8.35341 13.1485C8.15057 12.852 7.86481 12.6219 7.53185 12.487L6.54872 14.9136C6.40436 14.8551 6.28046 14.7554 6.19252 14.6268L8.35341 13.1485ZM7.53185 12.487C7.1989 12.3521 6.83356 12.3184 6.48156 12.3901L7.0041 14.9556C6.85148 14.9867 6.69309 14.9721 6.54872 14.9136L7.53185 12.487ZM6.48156 12.3901C6.12955 12.4618 5.8065 12.6358 5.55285 12.8901L7.40677 14.7388C7.29679 14.8491 7.15673 14.9245 7.0041 14.9556L6.48156 12.3901ZM17.9679 8.75094L14.8644 11.8543L16.7158 13.7057L19.8192 10.6023L17.9679 8.75094ZM14.8634 11.8554C14.5282 12.1914 14.3369 12.6446 14.3301 13.1192L16.948 13.1567C16.9451 13.3624 16.8621 13.559 16.7168 13.7046L14.8634 11.8554ZM14.33 13.1379V20.4827H16.9482V13.1379H14.33ZM14.33 20.4827C14.33 20.9671 14.5224 21.4316 14.8649 21.7741L16.7162 19.9228C16.8647 20.0713 16.9482 20.2727 16.9482 20.4827H14.33ZM14.8649 21.7741C15.2074 22.1166 15.6719 22.309 16.1563 22.309V19.6909C16.3663 19.6909 16.5677 19.7743 16.7162 19.9228L14.8649 21.7741ZM16.1563 22.309H19.2597V19.6909H16.1563V22.309ZM19.2597 22.309C19.7441 22.309 20.2086 22.1166 20.5511 21.7741L18.6998 19.9228C18.8483 19.7743 19.0497 19.6909 19.2597 19.6909V22.309ZM20.5511 21.7741C20.8936 21.4316 21.0861 20.9671 21.0861 20.4827H18.4679C18.4679 20.2727 18.5513 20.0713 18.6998 19.9228L20.5511 21.7741ZM21.0861 20.4827V10.0345H18.4679V20.4827H21.0861ZM21.0859 10.0161C21.0809 9.65685 20.97 9.30712 20.7671 9.01063L18.6062 10.4889C18.5183 10.3604 18.4702 10.2087 18.468 10.053L21.0859 10.0161ZM20.7671 9.01063C20.5643 8.71414 20.2785 8.48405 19.9456 8.34915L18.9624 10.7757C18.8181 10.7172 18.6942 10.6175 18.6062 10.4889L20.7671 9.01063ZM19.9456 8.34915C19.6126 8.21426 19.2473 8.18055 18.8953 8.25225L19.4178 10.8177C19.2652 10.8488 19.1068 10.8342 18.9624 10.7757L19.9456 8.34915ZM18.8953 8.25225C18.5433 8.32395 18.2202 8.49787 17.9666 8.75224L19.8205 10.601C19.7105 10.7112 19.5705 10.7867 19.4178 10.8177L18.8953 8.25225Z" fill="#616161" mask="url(#path-1-inside-1_1418_71565)"/>
<path fill-rule="evenodd" clip-rule="evenodd" d="M21.3691 3.5129L21.3691 3.51298C21.4107 3.61347 21.4321 3.72116 21.4322 3.82993V3.83001V6.93334C21.4322 7.15345 21.3447 7.36454 21.1891 7.52019C21.0335 7.67583 20.8224 7.76327 20.6022 7.76327C20.3821 7.76327 20.171 7.67583 20.0154 7.52019C19.8598 7.36454 19.7723 7.15345 19.7723 6.93334V6.32714V5.83879L19.4243 6.18137L13.9478 11.572L13.9466 11.5731C13.8002 11.7195 13.5945 11.7894 13.3599 11.7894C13.1254 11.7894 12.9197 11.7196 12.7733 11.5733L12.7731 11.5731L9.36819 8.14203L9.22211 7.99483L9.07693 8.14292L3.60454 13.7252C3.44822 13.8752 3.2394 13.9582 3.02267 13.9563C2.80507 13.9544 2.59691 13.8671 2.44303 13.7133C2.28916 13.5594 2.20187 13.3512 2.19998 13.1336C2.1981 12.9166 2.28132 12.7075 2.43177 12.5511L8.63727 6.34559L8.63729 6.34557C8.79293 6.19 9.00398 6.1026 9.22403 6.1026C9.44407 6.1026 9.6551 6.18998 9.81073 6.34553L9.8108 6.34559L13.2162 9.75307L13.3609 9.89779L13.5055 9.75312L18.2497 5.00903L18.5988 4.65985H18.105H16.9816C16.7615 4.65985 16.5504 4.57241 16.3947 4.41677C16.2391 4.26113 16.1516 4.05004 16.1516 3.82993C16.1516 3.60982 16.2391 3.39872 16.3947 3.24308C16.5504 3.08744 16.7615 3 16.9816 3H20.6022H20.6022C20.7665 3.00003 20.927 3.04878 21.0635 3.14008C21.2 3.23138 21.3063 3.36112 21.3691 3.5129Z" fill="#616161"/>
</svg>
