<svg width="24" height="24" viewBox="0 0 24 24" fill="none" xmlns="http://www.w3.org/2000/svg">
<path fill-rule="evenodd" clip-rule="evenodd" d="M15.4999 10.2307C15.7761 10.2307 15.9999 10.0069 15.9999 9.73074C15.9999 9.45459 15.7761 9.23074 15.4999 9.23074H11.6564C11.4951 9.23074 11.3517 9.30711 11.2602 9.42567C11.1802 9.47987 11.115 9.55781 11.0766 9.65436L9.5825 13.4048L8.79622 11.6508C8.68326 11.3988 8.38742 11.2861 8.13544 11.399C7.88346 11.512 7.77076 11.8078 7.88371 12.0598L9.07013 14.7064C9.17758 14.9461 9.45053 15.0598 9.69379 14.9731C9.89294 14.9736 10.0815 14.8542 10.1597 14.658L11.9234 10.2307H15.4999ZM12.0499 11.0646H12.8973L13.773 12.6095L14.6566 11.0646H15.5014L14.2639 13.0487L15.5117 15.0328H14.6669L13.773 13.5499L12.8818 15.0328H12.0344L13.2693 13.0487L12.0499 11.0646Z" fill="#616161"/>
<rect x="3.81818" y="7.03256" width="16.3636" height="9.93506" rx="1" stroke="#616161" stroke-width="1.63636"/>
<rect x="16.9675" y="3.81818" width="16.3636" height="9.93506" rx="1" transform="rotate(90 16.9675 3.81818)" stroke="#616161" stroke-width="1.63636"/>
</svg>
