<svg width="24" height="24" viewBox="0 0 24 24" fill="none" xmlns="http://www.w3.org/2000/svg">
<path d="M3 5.75C3 4.23122 4.23122 3 5.75 3H18.25C19.7688 3 21 4.23122 21 5.75V18.25C21 19.7688 19.7688 21 18.25 21H5.75C4.23122 21 3 19.7688 3 18.25V5.75ZM5.75 4.5C5.05964 4.5 4.5 5.05964 4.5 5.75V18.25C4.5 18.9404 5.05964 19.5 5.75 19.5H18.25C18.9404 19.5 19.5 18.9404 19.5 18.25V5.75C19.5 5.05964 18.9404 4.5 18.25 4.5H5.75Z" fill="#616161"/>
<path d="M12 15.1582C10.4795 15.1582 9.57861 13.9277 9.57861 11.8228C9.57861 9.72656 10.4927 8.50049 12 8.50049C13.5029 8.50049 14.417 9.72656 14.417 11.8315C14.417 13.9321 13.5161 15.1582 12 15.1582ZM12 14.2397C12.8042 14.2397 13.27 13.4092 13.27 11.8228C13.27 10.2495 12.7954 9.42334 12 9.42334C11.2046 9.42334 10.7256 10.2539 10.7256 11.8228C10.7256 13.4048 11.1958 14.2397 12 14.2397Z" fill="#616161"/>
</svg>
