<svg width="24" height="24" viewBox="0 0 24 24" fill="none" xmlns="http://www.w3.org/2000/svg">
<path d="M3 5.75C3 4.23122 4.23122 3 5.75 3H18.25C19.7688 3 21 4.23122 21 5.75V18.25C21 19.7688 19.7688 21 18.25 21H5.75C4.23122 21 3 19.7688 3 18.25V5.75ZM5.75 4.5C5.05964 4.5 4.5 5.05964 4.5 5.75V18.25C4.5 18.9404 5.05964 19.5 5.75 19.5H18.25C18.9404 19.5 19.5 18.9404 19.5 18.25V5.75C19.5 5.05964 18.9404 4.5 18.25 4.5H5.75Z" fill="#616161"/>
<path d="M11.9956 15.1582C10.541 15.1582 9.53906 14.4023 9.53906 13.3037C9.53906 12.4995 10.0796 11.8579 10.9102 11.6865V11.6118C10.2334 11.4448 9.79395 10.8955 9.79395 10.2144C9.79395 9.2168 10.7124 8.50049 12 8.50049C13.2876 8.50049 14.2017 9.2168 14.2017 10.2144C14.2017 10.8999 13.771 11.4404 13.0898 11.6118V11.6865C13.916 11.8403 14.4609 12.4819 14.4609 13.2993C14.4609 14.4023 13.459 15.1582 11.9956 15.1582ZM12 11.2778C12.6416 11.2778 13.0854 10.8867 13.0854 10.3198C13.0854 9.74854 12.646 9.35303 12 9.35303C11.3496 9.35303 10.9102 9.74854 10.9102 10.3198C10.9102 10.8911 11.354 11.2778 12 11.2778ZM12 14.2925C12.7646 14.2925 13.2876 13.8486 13.2876 13.2114C13.2876 12.5698 12.7603 12.126 12 12.126C11.2354 12.126 10.708 12.5698 10.708 13.2114C10.708 13.8486 11.2354 14.2925 12 14.2925Z" fill="#616161"/>
</svg>
