<svg width="24" height="24" viewBox="0 0 24 24" fill="none" xmlns="http://www.w3.org/2000/svg">
<path d="M3 5.75C3 4.23122 4.23122 3 5.75 3H18.25C19.7688 3 21 4.23122 21 5.75V18.25C21 19.7688 19.7688 21 18.25 21H5.75C4.23122 21 3 19.7688 3 18.25V5.75ZM5.75 4.5C5.05964 4.5 4.5 5.05964 4.5 5.75V18.25C4.5 18.9404 5.05964 19.5 5.75 19.5H18.25C18.9404 19.5 19.5 18.9404 19.5 18.25V5.75C19.5 5.05964 18.9404 4.5 18.25 4.5H5.75Z" fill="#616161"/>
<path d="M9.76758 10.5352C9.76758 9.33545 10.6992 8.50049 12.022 8.50049C13.2832 8.50049 14.1401 9.26953 14.1401 10.3242C14.1401 11.0625 13.8193 11.5767 12.7295 12.6445L11.3672 13.9849V14.0596H14.2324V15H9.8291V14.2354L12.0264 12.0249C12.8262 11.2163 13.0195 10.9131 13.0195 10.4297C13.0195 9.854 12.624 9.41016 11.9604 9.41016C11.2705 9.41016 10.8311 9.86719 10.8311 10.5352H9.76758Z" fill="#616161"/>
</svg>
