<svg width="24" height="24" viewBox="0 0 24 24" fill="none" xmlns="http://www.w3.org/2000/svg">
<path d="M3 5.75C3 4.23122 4.23122 3 5.75 3H18.25C19.7688 3 21 4.23122 21 5.75V18.25C21 19.7688 19.7688 21 18.25 21H5.75C4.23122 21 3 19.7688 3 18.25V5.75ZM5.75 4.5C5.05964 4.5 4.5 5.05964 4.5 5.75V18.25C4.5 18.9404 5.05964 19.5 5.75 19.5H18.25C18.9404 19.5 19.5 18.9404 19.5 18.25V5.75C19.5 5.05964 18.9404 4.5 18.25 4.5H5.75Z" fill="#616161"/>
<path d="M12.5757 15V13.7827H9.47754V12.8555C10.2993 11.4272 11.2002 9.96826 12.0615 8.65869H13.6611V12.8467H14.5181V13.7827H13.6611V15H12.5757ZM10.5278 12.8071V12.873H12.5933V9.56396H12.5317C11.8813 10.5571 11.1475 11.7305 10.5278 12.8071Z" fill="#616161"/>
</svg>
