<svg width="24" height="24" viewBox="0 0 24 24" fill="none" xmlns="http://www.w3.org/2000/svg">
<path d="M3 5.75C3 4.23122 4.23122 3 5.75 3H18.25C19.7688 3 21 4.23122 21 5.75V18.25C21 19.7688 19.7688 21 18.25 21H5.75C4.23122 21 3 19.7688 3 18.25V5.75ZM5.75 4.5C5.05964 4.5 4.5 5.05964 4.5 5.75V18.25C4.5 18.9404 5.05964 19.5 5.75 19.5H18.25C18.9404 19.5 19.5 18.9404 19.5 18.25V5.75C19.5 5.05964 18.9404 4.5 18.25 4.5H5.75Z" fill="#616161"/>
<path d="M11.877 15.1538C10.7168 15.1538 9.8291 14.4771 9.64453 13.4443H10.7739C10.9102 13.9277 11.3452 14.2266 11.8901 14.2266C12.8174 14.2266 13.3491 13.374 13.3623 11.8843H13.2876C12.9888 12.4863 12.3867 12.8291 11.644 12.8291C10.4355 12.8291 9.55664 11.9414 9.55664 10.7241C9.55664 9.42773 10.5322 8.50049 11.9121 8.50049C13.4282 8.50049 14.4478 9.65186 14.4478 11.7524C14.4478 13.8926 13.4897 15.1538 11.877 15.1538ZM11.9165 11.9546C12.6504 11.9546 13.1733 11.4316 13.1733 10.7109C13.1733 9.98145 12.6372 9.42334 11.9209 9.42334C11.2046 9.42334 10.6685 9.97266 10.6685 10.689C10.6685 11.436 11.1782 11.9546 11.9165 11.9546Z" fill="#616161"/>
</svg>
