<svg width="24" height="24" viewBox="0 0 24 24" fill="none" xmlns="http://www.w3.org/2000/svg">
<path d="M3 5.75C3 4.23122 4.23122 3 5.75 3H18.25C19.7688 3 21 4.23122 21 5.75V18.25C21 19.7688 19.7688 21 18.25 21H5.75C4.23122 21 3 19.7688 3 18.25V5.75ZM5.75 4.5C5.05964 4.5 4.5 5.05964 4.5 5.75V18.25C4.5 18.9404 5.05964 19.5 5.75 19.5H18.25C18.9404 19.5 19.5 18.9404 19.5 18.25V5.75C19.5 5.05964 18.9404 4.5 18.25 4.5H5.75Z" fill="#616161"/>
<path d="M9.08594 15.1538C7.92578 15.1538 7.03809 14.4771 6.85352 13.4443H7.98291C8.11914 13.9277 8.5542 14.2266 9.09912 14.2266C10.0264 14.2266 10.5581 13.374 10.5713 11.8843H10.4966C10.1978 12.4863 9.5957 12.8291 8.85303 12.8291C7.64453 12.8291 6.76562 11.9414 6.76562 10.7241C6.76562 9.42773 7.74121 8.50049 9.12109 8.50049C10.6372 8.50049 11.6567 9.65186 11.6567 11.7524C11.6567 13.8926 10.6987 15.1538 9.08594 15.1538ZM9.12549 11.9546C9.85938 11.9546 10.3823 11.4316 10.3823 10.7109C10.3823 9.98145 9.84619 9.42334 9.12988 9.42334C8.41357 9.42334 7.87744 9.97266 7.87744 10.689C7.87744 11.436 8.38721 11.9546 9.12549 11.9546ZM15.2437 12.9609V14.7759H14.2549V12.9609H12.5278V11.9854H14.2549V10.1704H15.2437V11.9854H16.9751V12.9609H15.2437Z" fill="#616161"/>
</svg>
