<svg width="24" height="24" viewBox="0 0 24 24" fill="none" xmlns="http://www.w3.org/2000/svg">
<path d="M3 5.75C3 4.23122 4.23122 3 5.75 3H18.25C19.7688 3 21 4.23122 21 5.75V18.25C21 19.7688 19.7688 21 18.25 21H5.75C4.23122 21 3 19.7688 3 18.25V5.75ZM5.75 4.5C5.05964 4.5 4.5 5.05964 4.5 5.75V18.25C4.5 18.9404 5.05964 19.5 5.75 19.5H18.25C18.9404 19.5 19.5 18.9404 19.5 18.25V5.75C19.5 5.05964 18.9404 4.5 18.25 4.5H5.75Z" fill="#616161"/>
<path d="M12.0527 15.1582C10.7432 15.1582 9.8335 14.3628 9.78516 13.251H10.8442C10.9146 13.8442 11.4023 14.2354 12.0483 14.2354C12.7778 14.2354 13.27 13.7168 13.27 12.939C13.27 12.1831 12.7778 11.6777 12.0791 11.6777C11.5386 11.6777 11.1211 11.9282 10.9058 12.3457H9.87744L10.2246 8.65869H14.0259V9.59033H11.1079L10.9321 11.4448H11.0068C11.2881 11.0537 11.7539 10.834 12.3999 10.834C13.4854 10.834 14.3643 11.647 14.3643 12.9214C14.3643 14.2485 13.437 15.1582 12.0527 15.1582Z" fill="#616161"/>
</svg>
