<svg width="24" height="24" viewBox="0 0 24 24" fill="none" xmlns="http://www.w3.org/2000/svg">
<path d="M3 5.75C3 4.23122 4.23122 3 5.75 3H18.25C19.7688 3 21 4.23122 21 5.75V18.25C21 19.7688 19.7688 21 18.25 21H5.75C4.23122 21 3 19.7688 3 18.25V5.75ZM5.75 4.5C5.05964 4.5 4.5 5.05964 4.5 5.75V18.25C4.5 18.9404 5.05964 19.5 5.75 19.5H18.25C18.9404 19.5 19.5 18.9404 19.5 18.25V5.75C19.5 5.05964 18.9404 4.5 18.25 4.5H5.75Z" fill="#616161"/>
<path d="M12.0879 15.1538C10.6201 15.1538 9.55225 14.0728 9.55225 11.9019C9.55225 9.76611 10.541 8.50049 12.1143 8.50049C13.3315 8.50049 14.1973 9.19043 14.3555 10.2144H13.2217C13.1118 9.71777 12.6987 9.42773 12.1362 9.42773C11.1958 9.42773 10.6465 10.2539 10.6377 11.77H10.7124C11.0112 11.168 11.6089 10.8252 12.356 10.8252C13.5601 10.8252 14.4434 11.7129 14.4434 12.9302C14.4434 14.231 13.4678 15.1538 12.0879 15.1538ZM12.0791 14.231C12.791 14.231 13.3315 13.6816 13.3315 12.9609C13.3315 12.2139 12.8218 11.6909 12.0835 11.6909C11.3452 11.6909 10.8267 12.2139 10.8267 12.939C10.8267 13.6729 11.3628 14.231 12.0791 14.231Z" fill="#616161"/>
</svg>
